# xmcd CD database file
#
# Track frame offsets:
#	150
#	26037
#	51715
#	75575
#	98690
#	118582
#	140357
#	169304
#	193461
#	213398
#	241147
#	264130
#
# Disc length: 3759 seconds
#
# Revision: 2
# Processed by: cddbd v1.5.1PL0 Copyright (c) Steve Scherf et al.
# Submitted via: CDex 1.51
#
DISCID=a90ead0c
DTITLE=渡辺美里 - LOVE GO GO!!
DYEAR=2000
DGENRE=JPop
TTITLE0=ラブ ゴーゴー!!
TTITLE1=Lovers universe
TTITLE2=あなたのすきな歌
TTITLE3=もっと遠くへ…
TTITLE4=こぶし
TTITLE5=たった一度の人生だもの
TTITLE6=Lazy sunny afternoon
TTITLE7=荒ぶる胸のシンバル鳴らせ
TTITLE8=十六夜の月 〜izayoino tsuki〜
TTITLE9=ホームラン・ラン・ラン
TTITLE10=サンキュ
TTITLE11=深呼吸
EXTD=YEAR: 2000
EXTT0=
EXTT1=
EXTT2=
EXTT3=
EXTT4=
EXTT5=
EXTT6=
EXTT7=
EXTT8=
EXTT9=
EXTT10=
EXTT11=
PLAYORDER=
